<svg viewBox="0 0 45 45" fill="none" xmlns="http://www.w3.org/2000/svg">
<path d="M13.9325 7.77222C13.9325 7.77222 15.3481 8.95469 16.4125 9.42592C18.4283 10.3183 19.8316 9.96876 22.0355 9.92201C24.1177 9.87785 25.3961 10.0401 27.3274 9.26054C28.6731 8.71729 30.4694 7.27612 30.4694 7.27612C30.4694 7.27612 30.9789 7.71837 31.1308 8.10297C31.3207 8.58347 31.1308 9.42592 31.1308 9.42592C31.1308 9.42592 31.0265 9.98876 30.8001 10.2528C29.8074 11.4103 27.9888 12.7333 27.9888 12.7333V21.1671L36.588 34.0659C36.588 34.0659 38.4071 36.8822 37.911 38.6962C37.4168 40.5027 36.0012 40.9718 34.4382 42.0036C29.3113 43.4919 26.9064 43.3632 22.0355 43.3265C17.4856 43.2923 14.5935 43.0368 10.4597 42.0036C8.47481 41.5075 6.82112 40.6806 6.65624 38.6962C6.65625 37.704 6.6022 36.6716 7.15234 35.3888C7.64845 34.2313 16.0823 21.1671 16.0823 21.1671V12.7333L13.6017 11.0796C13.6017 11.0796 13.2409 10.7113 13.1056 10.4181C12.835 9.83175 12.859 9.36129 13.1056 8.76443C13.2983 8.29827 13.9325 7.77222 13.9325 7.77222Z" fill="#FFD79B"/>
<path d="M16.0821 12.7334V21.1672C16.0592 21.2026 7.64758 34.2329 7.15215 35.3889C6.60203 36.6717 6.65606 37.7041 6.65604 38.6963C6.82092 40.6807 8.47468 41.5076 10.4595 42.0037C14.5933 43.0369 17.4857 43.2924 22.0357 43.3266C26.9064 43.3633 29.3113 43.492 34.438 42.0037C36.001 40.9719 37.4166 40.5028 37.9108 38.6963C38.4069 36.8823 36.5878 34.066 36.5878 34.066C37.9769 33.1687 37.9774 33.1691 37.9776 33.1694L37.9779 33.17C37.9782 33.1705 37.9786 33.1711 37.9789 33.1716C37.9796 33.1727 37.9806 33.1741 37.9815 33.1755C37.9833 33.1784 37.9856 33.182 37.9883 33.1862C37.9937 33.1948 38.0009 33.2062 38.0096 33.2201C38.027 33.2479 38.0507 33.2863 38.0797 33.3341C38.1376 33.4297 38.2171 33.5644 38.3093 33.7301C38.4925 34.0591 38.7335 34.5229 38.9592 35.0579C39.1827 35.5876 39.4073 36.2242 39.537 36.8924C39.664 37.5469 39.7221 38.3426 39.506 39.1327C39.1438 40.4566 38.4141 41.3097 37.5865 41.9491C37.1997 42.2479 36.7896 42.5016 36.4247 42.7217C36.0392 42.9542 35.703 43.1502 35.3492 43.3838L35.1399 43.5221L34.8992 43.5918C29.5204 45.1533 26.9023 45.0171 22.0231 44.9803C17.384 44.9454 14.3546 44.6817 10.0587 43.608C8.99726 43.3427 7.82753 42.9463 6.87696 42.2262C5.85702 41.4535 5.13315 40.3375 5.00817 38.8333L5.00235 38.7648V38.6963C5.00237 37.7631 4.92668 36.3834 5.6325 34.7375C5.74696 34.4704 5.99917 34.0345 6.25683 33.6009C6.54275 33.1197 6.91915 32.5041 7.35143 31.807C8.21698 30.4112 9.32187 28.6631 10.4082 26.9561C11.4951 25.2481 12.5663 23.5769 13.3654 22.3329C13.7651 21.7108 14.0967 21.1952 14.3286 20.8352C14.3643 20.7798 14.3975 20.728 14.4284 20.6802V13.6184L12.5408 12.36L12.4204 12.237L13.6015 11.0797L16.0821 12.7334ZM31.5534 6.02724L30.4692 7.27623C31.5531 6.02735 31.5536 6.02741 31.5537 6.02757L31.5563 6.03015C31.5575 6.03118 31.5591 6.03244 31.5605 6.0337C31.5634 6.03619 31.5668 6.03907 31.5705 6.04242C31.5783 6.04928 31.5882 6.05791 31.5996 6.06826C31.6225 6.08891 31.6526 6.11669 31.6881 6.1503C31.7582 6.21669 31.8542 6.31091 31.9585 6.42387C32.1153 6.5939 32.4307 6.95204 32.6306 7.40381L32.6687 7.49554L32.7117 7.61278C32.9104 8.20123 32.8742 8.80402 32.8492 9.08915C32.8325 9.28053 32.8077 9.44741 32.7872 9.56652C32.7769 9.62683 32.7674 9.67712 32.7598 9.71478C32.756 9.73368 32.7528 9.74973 32.7501 9.76225C32.7487 9.7694 32.7471 9.77738 32.7452 9.78615C32.7394 9.81441 32.7312 9.85137 32.721 9.895C32.7009 9.98088 32.6704 10.1 32.6283 10.2345C32.5643 10.439 32.402 10.9252 32.0553 11.3294C31.4622 12.0211 30.6684 12.7149 30.0719 13.205C29.9187 13.3308 29.7736 13.4469 29.6423 13.5506V20.6659L37.9641 33.1487L37.977 33.1687L36.5878 34.066L27.9886 21.1672V12.7334C27.9886 12.7334 29.6954 11.4917 30.7046 10.3617L30.7999 10.2529C31.0254 9.98996 31.1298 9.43063 31.1306 9.42603C31.1306 9.42603 31.3205 8.58358 31.1306 8.10307C30.9787 7.71849 30.4692 7.27623 30.4692 7.27623C30.454 7.28836 28.6675 8.71967 27.3275 9.26066L27.1482 9.33107C25.3155 10.0304 24.0527 9.87936 22.0357 9.92213L21.6313 9.93408C19.6537 10.0077 18.3023 10.2626 16.4125 9.42603C15.348 8.9548 13.9323 7.77234 13.9323 7.77234C13.9232 7.77985 13.2967 8.30176 13.1054 8.76455C12.8588 9.36136 12.8348 9.83192 13.1054 10.4182C13.2396 10.7089 13.5955 11.0736 13.6015 11.0797C12.4203 12.2369 12.4202 12.2368 12.4201 12.2367L12.4181 12.2347C12.4173 12.2339 12.4165 12.2328 12.4155 12.2318C12.4135 12.2298 12.4111 12.2275 12.4084 12.2247C12.403 12.2191 12.3961 12.2119 12.3881 12.2034C12.372 12.1865 12.3506 12.1639 12.3254 12.1365C12.2758 12.0825 12.208 12.0064 12.1332 11.9166C12.0105 11.7691 11.7677 11.4655 11.6042 11.1114C11.3862 10.6389 11.2517 10.1316 11.2579 9.57654C11.2641 9.03403 11.4039 8.55303 11.5774 8.13311L11.621 8.03331C11.8484 7.5413 12.2082 7.14609 12.3997 6.94711C12.5232 6.81876 12.637 6.71171 12.7201 6.63639C12.7621 6.59833 12.7975 6.56703 12.8241 6.54402C12.8375 6.53249 12.8489 6.52305 12.8577 6.5156C12.8621 6.51188 12.8658 6.50857 12.869 6.50591C12.8705 6.50462 12.872 6.50339 12.8732 6.50236C12.8738 6.50182 12.8746 6.5012 12.8751 6.50074L12.8758 6.50009L12.8764 6.49977C12.8776 6.50087 12.907 6.53621 13.744 7.54528L12.8768 6.49945L13.9361 5.6206L14.992 6.50268L14.9933 6.50365C14.9948 6.5049 14.9975 6.50722 15.0014 6.51043C15.0095 6.51712 15.0228 6.52805 15.0404 6.54241C15.0757 6.57115 15.129 6.61408 15.1968 6.66772C15.333 6.77557 15.5249 6.92438 15.7465 7.08567C16.2168 7.42809 16.7192 7.7532 17.082 7.9138C18.6574 8.61121 19.483 8.32216 22.0005 8.26877C24.2632 8.22078 25.1345 8.36241 26.7083 7.72712C27.201 7.52824 27.8608 7.12183 28.4605 6.70584C28.7458 6.50796 28.993 6.32499 29.1685 6.19197C29.2559 6.1257 29.3248 6.07249 29.3707 6.03661C29.3936 6.01869 29.4109 6.00512 29.4217 5.99656C29.4271 5.99231 29.4309 5.98923 29.433 5.98752C29.4335 5.9871 29.434 5.98681 29.4343 5.98655L30.5108 5.12256L31.5534 6.02724Z" fill="#D18A31"/>
<path d="M13.6008 27.6276C13.6008 27.6276 14.3828 26.475 15.3925 24.9707C16.4065 23.46 17.6501 21.5947 18.5619 20.186C19.3881 18.9096 20.2096 19.2327 21.3731 19.1938C22.6592 19.1508 23.7039 19.1872 24.5152 20.186C26.6643 22.8319 27.7967 24.6823 29.807 27.6276C31.9376 30.7493 33.1143 32.5887 35.0988 35.7307C35.5165 36.3922 35.7412 36.8985 35.7602 37.7151C35.7807 38.5933 35.8614 39.4291 35.0988 39.8649C32.7836 41.1879 31.5544 41.399 29.1455 41.8493C26.2882 42.3836 24.6129 42.1801 21.7039 42.1801C18.7949 42.1801 17.2383 42.3454 14.2623 41.8493C12.0255 41.4765 9.6313 41.0225 8.80511 39.8649C8.43325 39.1579 8.32352 38.6792 8.309 37.8805C8.29334 37.019 8.56308 36.5576 8.80511 35.7307C10.6235 32.5887 13.6008 27.6276 13.6008 27.6276Z" fill="#8DC5D4"/>
<path opacity="0.4" d="M19.3577 19.3029C19.6003 19.1932 20.0192 19.1376 20.0192 19.1376C20.0192 19.1376 20.8255 19.1304 21.3421 19.1376C21.9355 19.1458 22.2797 19.0632 22.861 19.1828C23.261 19.2651 23.4951 19.3171 23.8532 19.5135C24.1363 19.6688 24.2728 19.7957 24.5147 20.0096C25.0108 20.6711 25.2322 20.9076 25.6722 21.498C26.6836 22.8549 28.0951 25.0909 28.0951 25.0909C28.0951 25.0909 26.2258 25.4936 25.0108 25.6322C23.7259 25.7787 22.9966 25.7975 21.7034 25.7975C20.4102 25.7975 19.6812 25.7759 18.396 25.6322C17.1576 25.4937 15.2513 25.0909 15.2513 25.0909L18.6962 19.7991C18.6962 19.7991 19.0635 19.436 19.3577 19.3029Z" fill="#D5F9FF"/>
<path d="M19.1513 22.0552C19.482 21.8904 20.2605 21.8388 20.8038 22.0552C21.5039 22.334 21.7972 22.5519 21.7972 23.7095C21.301 26.5207 20.8254 27.2113 19.9781 29.6627C19.4643 31.1493 18.9977 32.0453 18.3233 33.4662C17.9764 34.1971 17.3322 35.2853 17.3322 35.2853C17.3322 35.2853 16.733 36.0731 16.1733 36.277C15.6273 36.4759 15.2656 36.519 14.6863 36.4429C14.1392 36.3709 13.8654 36.1756 13.3633 35.9468C13.101 35.8272 12.9057 35.7011 12.7018 35.4507C12.5194 35.2265 12.4587 35.0642 12.37 34.7892C12.1916 34.2358 12.2866 33.8757 12.37 33.3003C12.499 32.4102 12.8101 31.9626 13.1979 31.1511C13.9007 29.6805 14.642 29.056 15.512 27.6777C16.6708 25.8419 17.0015 25.0324 18.3233 22.882C18.6049 22.4239 18.8206 22.2211 19.1513 22.0552Z" fill="#D2EFF3"/>
<path d="M27.8219 37.5387C27.8219 38.1781 27.3036 38.6963 26.6643 38.6963C26.025 38.6963 25.5067 38.1781 25.5067 37.5387C25.5067 36.8994 26.025 36.3812 26.6643 36.3812C27.3036 36.3812 27.8219 36.8994 27.8219 37.5387Z" fill="#9ACED9"/>
<path d="M25.5067 32.4123C25.5067 33.3256 24.7663 34.066 23.853 34.066C22.9397 34.066 22.1993 33.3256 22.1993 32.4123C22.1993 31.499 22.9397 30.7586 23.853 30.7586C24.7663 30.7586 25.5067 31.499 25.5067 32.4123Z" fill="#9CCED9"/>
<path d="M15.2538 2.97638C15.9677 2.48036 16.3106 2.408 17.0381 2.1497C17.78 1.88629 18.2164 1.77063 19.0008 1.65369C20.2497 1.65368 20.8494 1.65369 22.034 1.65369C23.0792 1.65369 23.6398 1.65371 24.7103 1.65369C25.7762 1.65368 26.414 1.74582 27.3867 2.1497C27.9866 2.39878 28.3694 2.5278 28.8141 2.97638C28.8141 4.62973 28.8141 5.12574 28.8141 6.94443C28.4458 7.48485 28.1417 7.75086 27.5651 8.10178C26.7172 8.61792 26.0658 8.59746 25.0672 8.76312C23.8992 8.95688 22.034 8.92846 22.034 8.92846C22.034 8.92846 20.3861 8.94732 19.3576 8.76312C18.2759 8.56939 17.6378 8.44295 16.6812 7.93644C16.0763 7.6161 15.2538 6.94443 15.2538 6.94443C15.2538 6.94443 15.254 4.46439 15.2538 2.97638Z" fill="#FEBA55"/>
<path d="M22.034 5.68463e-06V1.65369H19.0008C18.2164 1.77063 17.7799 1.88639 17.038 2.1498L16.5529 2.31808C16.1161 2.47066 15.7893 2.6043 15.2538 2.97632C15.254 4.46434 15.2538 6.94453 15.2538 6.94453C15.2609 6.95026 16.0788 7.61743 16.6811 7.93642C17.6377 8.44293 18.276 8.56953 19.3577 8.76326C20.3862 8.94744 22.034 8.92831 22.034 8.92831C22.034 8.92831 23.6734 8.9534 24.8407 8.79686L25.0671 8.76326C26.0034 8.60795 26.6345 8.61624 27.4085 8.19255L27.5651 8.10179C28.1416 7.75088 28.4458 7.48491 28.8141 6.94453V2.97632C28.4806 2.63992 28.1818 2.48337 27.8002 2.32098L27.3868 2.1498C26.4141 1.74592 25.7761 1.65368 24.7102 1.65369V5.68463e-06C25.9437 -1.07187e-05 26.8056 0.117816 28.0208 0.6224C28.5456 0.840292 29.2664 1.08363 29.9885 1.81196C30.2955 2.12165 30.4678 2.54024 30.4678 2.97632V6.94453C30.4678 7.27671 30.3677 7.6012 30.1807 7.8757C29.6579 8.64263 29.1669 9.06287 28.4249 9.51453C27.2191 10.2484 26.0665 10.2738 25.3378 10.3947C24.6368 10.511 23.7847 10.5538 23.1589 10.5713C22.8353 10.5804 22.5506 10.5832 22.3466 10.5836C22.2445 10.5838 22.162 10.5834 22.1041 10.583C22.0751 10.5828 22.0523 10.5825 22.0362 10.5823C22.0347 10.5823 22.0331 10.582 22.0317 10.582C22.0305 10.582 22.0292 10.5823 22.0278 10.5823C22.0133 10.5824 21.9927 10.5826 21.9668 10.5826C21.9149 10.5828 21.8409 10.5829 21.7497 10.5823C21.5678 10.5811 21.3142 10.5772 21.0256 10.5675C20.471 10.5487 19.7031 10.5049 19.0661 10.3908C17.9494 10.1908 17.1006 10.0298 15.9072 9.39793C15.4902 9.17707 15.0515 8.86734 14.7574 8.6499C14.6012 8.5344 14.4666 8.43046 14.3705 8.35501C14.3222 8.31713 14.2832 8.28584 14.2555 8.26361C14.2417 8.2525 14.2306 8.24361 14.2226 8.23712L14.2096 8.22678C14.2092 8.22646 14.209 8.22606 14.2087 8.22582L14.208 8.22549L14.2077 8.22517C13.8232 7.91108 13.6001 7.44071 13.6002 6.94421V2.97665C13.6001 2.43492 13.8655 1.9276 14.3104 1.61849C15.2428 0.970625 15.8178 0.828188 16.4847 0.591393C17.3162 0.296161 17.8564 0.15235 18.757 0.0180929L18.8784 0.00452749C18.9191 0.00150796 18.96 6.10287e-06 19.0008 5.68463e-06C20.2497 -7.10579e-06 20.8495 5.68463e-06 22.034 5.68463e-06ZM24.7102 5.68463e-06V1.65369H22.034V5.68463e-06C23.0792 5.68463e-06 23.6398 1.9919e-05 24.7102 5.68463e-06Z" fill="#D18A31"/>
<path opacity="0.6" d="M13.6002 10.5836C13.6002 10.5836 16.0447 11.2942 17.569 11.7412C19.4323 12.2876 20.5886 12.1041 22.5301 12.0719C24.0852 12.0462 24.9963 12.1426 26.4989 11.7412C27.8673 11.3757 30.3024 10.5836 30.3024 10.5836C30.3024 10.5836 29.8063 11.0797 28.9795 11.7412C28.1526 12.4027 27.6565 12.4027 27.4911 13.3949C27.9872 14.5525 15.5846 14.7178 16.5768 13.3949C16.1411 13.0681 16.9489 12.8988 14.9231 11.7412C13.7655 11.0797 13.6002 10.5836 13.6002 10.5836Z" fill="#FFC883"/>
<path opacity="0.47" d="M15.2538 3.30737C15.2538 3.30737 17.3473 4.40226 18.8322 4.68193C19.8433 4.87233 21.469 4.85374 21.469 4.85374C21.469 4.85374 22.9634 4.91298 23.9173 4.85374C24.9551 4.78931 25.5625 4.79691 26.5541 4.51011C27.4947 4.23802 28.8141 3.47919 28.8141 3.47919C28.8141 3.47919 27.4957 5.71284 26.5541 5.88466C24.294 6.40012 24.0339 6.29316 22.4106 6.2283C20.7676 6.16264 19.7542 6.18214 18.2672 5.54102C16.8964 4.94994 15.2538 3.30737 15.2538 3.30737Z" fill="#EF993B"/>
</svg>
