<svg viewBox="0 0 24 22" fill="none" xmlns="http://www.w3.org/2000/svg">
<path d="M15.6807 0C20.1928 0 23.8506 3.65779 23.8506 8.16992V11.2012C23.8505 14.0267 22.4818 16.531 20.375 18.0898C20.4394 18.3356 20.5104 18.6308 20.5693 18.9385C20.6448 19.3327 20.7114 19.7995 20.7021 20.2275C20.6975 20.441 20.6738 20.6926 20.5967 20.9395C20.5207 21.1826 20.3632 21.5112 20.0312 21.749C19.7772 21.9308 19.51 21.9785 19.3447 21.9932C19.1676 22.0088 18.9978 21.9952 18.8564 21.9756C18.5735 21.9364 18.2651 21.8521 17.9707 21.7559C17.3734 21.5605 16.6691 21.2626 16.0166 20.9648C15.3577 20.6642 14.7226 20.3499 14.2539 20.1123C14.0192 19.9934 13.8245 19.8933 13.6885 19.8223C13.6478 19.801 13.6119 19.7813 13.582 19.7656H8.16992C3.65779 19.7656 0 16.1078 0 11.5957V8.16992C3.27524e-05 3.65781 3.65781 3.20202e-05 8.16992 0H15.6807ZM8 11C7.44772 11 7 11.4477 7 12C7 12.5523 7.44772 13 8 13H16C16.5523 13 17 12.5523 17 12C17 11.4477 16.5523 11 16 11H8ZM8 7C7.44772 7 7 7.44772 7 8C7 8.55228 7.44772 9 8 9H16C16.5523 9 17 8.55228 17 8C17 7.44772 16.5523 7 16 7H8Z" fill="#FEF5DA"/>
</svg>
