<svg viewBox="0 0 45 45" fill="none" xmlns="http://www.w3.org/2000/svg">
<path d="M8.89133 34.3531C9.84595 33.1559 10.7229 32.3986 12.1675 31.6573C13.7353 30.8528 15.0192 30.5532 16.3909 30.5532C16.9243 31.4454 17.5964 32.1779 18.6686 32.7994C19.7001 33.3974 20.2904 33.6552 21.4859 33.7512C23.2286 33.8911 24.244 33.5357 25.4834 32.7994C26.4223 32.2417 27.3708 30.5532 27.3708 30.5532C27.3708 30.5532 30.5447 31.1323 32.0787 31.9619C33.4461 32.7013 33.9786 33.2157 34.9149 34.3531C35.77 35.3918 36.1238 36.0881 36.4771 37.327C36.7853 38.4079 36.8676 39.4678 36.8285 40.5807C36.8247 40.6904 36.4426 41.04 35.9239 41.1316C31.621 41.8914 11.4804 42.0084 7.71305 41.1316C7.32581 41.0415 7.26317 40.6922 7.25549 40.5807C7.16409 39.2537 7.23685 38.4131 7.51966 37.327C7.83738 36.1069 8.07103 35.382 8.89133 34.3531Z" fill="#FFC69A"/>
<path d="M27.5894 29.3547L27.3707 30.5532C27.5833 29.3881 27.5893 29.3557 27.5896 29.3548C27.5897 29.3548 27.5898 29.3548 27.5899 29.3548C27.5901 29.3548 27.5904 29.3549 27.5907 29.355C27.5914 29.3551 27.5922 29.3553 27.5933 29.3555C27.5953 29.3559 27.5982 29.3564 27.6017 29.357C27.6089 29.3584 27.6191 29.3603 27.632 29.3627C27.6579 29.3676 27.6952 29.3747 27.7426 29.3839C27.8374 29.4023 27.9731 29.4293 28.1401 29.4642C28.4734 29.5339 28.9348 29.6359 29.4474 29.7652C30.4357 30.0144 31.7448 30.3963 32.6582 30.8902C33.3893 31.2856 33.9451 31.6466 34.4542 32.0857C34.9567 32.5192 35.3773 32.998 35.8554 33.5788C36.8192 34.7495 37.2504 35.5964 37.6486 36.9929C38.0007 38.2273 38.0883 39.4203 38.046 40.6234C38.035 40.9362 37.9106 41.163 37.8616 41.2469C37.7965 41.3583 37.7243 41.4478 37.6659 41.513C37.5471 41.6456 37.4084 41.7627 37.2679 41.861C36.9868 42.0578 36.5982 42.2497 36.1357 42.3313C33.8598 42.7332 27.635 42.949 21.6206 42.9636C18.587 42.9709 15.5636 42.927 13.0561 42.8257C10.594 42.7261 8.51062 42.5681 7.43693 42.3182C6.21682 42.0343 6.05637 40.9013 6.04005 40.6644C5.94088 39.2245 6.02034 38.2502 6.34068 37.02C6.67567 35.7336 6.96306 34.8174 7.93877 33.5936C8.99288 32.2716 10.0019 31.3992 11.6113 30.5734C13.3321 29.6903 14.8054 29.3349 16.3909 29.335H17.0819L17.4365 29.928C17.874 30.6598 18.4028 31.2372 19.2796 31.7454C19.7821 32.0367 20.1078 32.2034 20.4233 32.3154C20.7249 32.4225 21.0622 32.495 21.5834 32.5369C22.3493 32.5984 22.8981 32.547 23.366 32.425C23.8388 32.3017 24.292 32.0901 24.8611 31.752C25.096 31.6125 25.4434 31.2368 25.7908 30.7548C25.9476 30.5373 26.0798 30.3333 26.1726 30.1836C26.2187 30.1092 26.2544 30.0495 26.2778 30.0097C26.2895 29.9898 26.298 29.975 26.3032 29.9659C26.3058 29.9614 26.3076 29.9582 26.3085 29.9567L26.309 29.9557C26.309 29.9558 26.309 29.9559 26.3089 29.9561L26.7343 29.1987L27.5894 29.3547ZM27.3707 30.5532C27.3685 30.5572 26.4212 32.2423 25.4834 32.7994L25.3677 32.8673C24.1989 33.5463 23.2066 33.876 21.567 33.7574L21.4859 33.7512C20.3651 33.6612 19.7763 33.429 18.8571 32.9076L18.6686 32.7994C17.5965 32.1779 16.9243 31.4454 16.3909 30.5532C15.0192 30.5532 13.7353 30.8528 12.1675 31.6573C10.7229 32.3986 9.84592 33.1558 8.89129 34.3531C8.07099 35.382 7.83733 36.1069 7.51962 37.327C7.23681 38.413 7.1641 39.2537 7.2555 40.5807C7.26319 40.6923 7.32584 41.0415 7.71302 41.1316C11.4804 42.0084 31.621 41.8914 35.9239 41.1316C36.4264 41.0429 36.8007 40.712 36.8271 40.5917L36.8285 40.5807C36.8676 39.4678 36.7853 38.4078 36.4771 37.327C36.1238 36.0881 35.7699 35.3918 34.9149 34.3531C33.9786 33.2157 33.4461 32.7013 32.0787 31.9619C30.5447 31.1323 27.3707 30.5532 27.3707 30.5532Z" fill="#E48D58"/>
<path d="M17.5737 28.4214C17.5737 28.4214 18.7176 29.0456 19.5154 29.259C20.4243 29.5021 20.9733 29.5131 21.9138 29.4874C22.8302 29.4623 23.3571 29.4049 24.2362 29.1447C24.9326 28.9386 25.9494 28.4214 25.9494 28.4214V30.7057C25.9494 30.7057 25.0134 31.749 24.2362 32.1524C23.4072 32.5826 22.8478 32.7165 21.9138 32.7234C20.951 32.7305 20.3869 32.5615 19.5154 32.1524C18.6594 31.7505 17.5737 30.7057 17.5737 30.7057V28.4214Z" fill="#FFEAD5"/>
<path d="M25.9494 28.5702C25.9494 28.5702 24.9326 29.0875 24.2362 29.2936C23.3571 29.5537 22.8303 29.6111 21.9138 29.6362C20.9733 29.6619 20.4243 29.6509 19.5154 29.4078C18.7176 29.1944 17.5737 28.5702 17.5737 28.5702V30.8545C17.5737 30.8545 18.6594 31.8994 19.5154 32.3012C20.387 32.7104 20.951 32.8794 21.9138 32.8723C22.8478 32.8654 23.4072 32.7314 24.2362 32.3012C25.0134 31.8978 25.9494 30.8545 25.9494 30.8545V28.5702ZM25.9494 30.8545C26.8562 31.668 26.856 31.6683 26.856 31.6683L26.8558 31.6685C26.8557 31.6686 26.8555 31.6688 26.8554 31.669C26.855 31.6694 26.8546 31.6698 26.8541 31.6703C26.8532 31.6714 26.852 31.6727 26.8507 31.6742C26.8479 31.6773 26.8442 31.6813 26.8397 31.6863C26.8306 31.6963 26.8179 31.7101 26.8021 31.7272C26.7705 31.7614 26.7257 31.8093 26.6701 31.8672C26.5593 31.9827 26.4029 32.1411 26.2186 32.3143C25.8738 32.6384 25.3437 33.0989 24.7974 33.3825C23.7931 33.9037 23.0438 34.0823 21.9228 34.0905C20.7328 34.0993 19.9874 33.8686 18.9977 33.404C18.4242 33.1348 17.8412 32.6903 17.4494 32.3678C17.2422 32.1973 17.0649 32.0411 16.9392 31.9272C16.8761 31.8701 16.8253 31.8231 16.7895 31.7895C16.7716 31.7728 16.7574 31.7594 16.7472 31.7497C16.7421 31.7448 16.738 31.7409 16.7349 31.738C16.7334 31.7365 16.7321 31.7353 16.7311 31.7344C16.7306 31.7339 16.7302 31.7334 16.7299 31.7331C16.7297 31.7329 16.7295 31.7328 16.7293 31.7326L16.7291 31.7324C16.7294 31.7319 16.747 31.7135 17.5737 30.8545L16.729 31.7323L16.3555 31.3728V26.5176L18.157 27.5007C18.1572 27.5008 18.1576 27.5009 18.158 27.5012C18.1594 27.5019 18.1617 27.5032 18.1651 27.505C18.1719 27.5087 18.1826 27.5145 18.197 27.5221C18.2259 27.5375 18.2692 27.5604 18.3242 27.5888C18.4345 27.6458 18.5896 27.7239 18.767 27.808C19.1408 27.9851 19.5435 28.1542 19.8302 28.2309C20.5757 28.4303 20.9911 28.4427 21.8805 28.4184C22.7227 28.3953 23.1393 28.3477 23.8904 28.1254C24.1534 28.0476 24.518 27.8963 24.8499 27.7454C25.0086 27.6733 25.1475 27.6071 25.2463 27.559C25.2956 27.535 25.3345 27.5157 25.3605 27.5027C25.3736 27.4962 25.3834 27.4913 25.3895 27.4882C25.3926 27.4866 25.3948 27.4855 25.3961 27.4848C25.3966 27.4846 25.3969 27.4844 25.3971 27.4843L27.1677 26.5837V31.3209L26.8562 31.668L25.9494 30.8545Z" fill="#E48D58"/>
<path d="M14.5471 15.0203C14.5471 15.0203 19.1348 14.3678 21.8568 13.269C23.7934 12.4873 25.74 11.2513 26.5776 10.7563C27.3009 11.4036 27.6029 11.8882 28.1385 12.698C28.7327 13.5964 29.0302 14.1461 29.3568 15.1726C29.6273 16.0229 29.6233 16.6193 29.7755 17.4188C29.807 17.584 29.9297 17.6481 30.0801 17.7234C30.2929 17.8297 30.469 17.8133 30.6893 17.7234C30.9177 17.4569 30.9244 17.2738 31.1842 17.0761C31.4743 16.8555 31.661 16.7577 32.0217 16.8097C32.3905 16.8627 32.5774 16.927 32.8593 17.2665C33.1275 17.5894 33.3156 17.996 33.3923 18.4086C33.4575 18.7595 33.428 18.9673 33.3923 19.3223C33.3385 19.8569 33.2854 20.1794 33.0497 20.6548C32.811 21.136 32.6847 21.4277 32.2121 21.6828C31.799 21.9057 31.5013 21.9116 31.0319 21.9112C30.7018 21.9109 30.537 21.835 30.1943 21.797C30.022 21.8215 29.9122 21.8415 29.7755 21.9492C29.6233 22.2157 29.6515 22.4413 29.5471 22.7487C29.2927 23.4981 29.0973 23.9091 28.6715 24.5762C28.0769 25.5077 27.6402 25.9916 26.7679 26.6701C25.9643 27.2951 25.4531 27.6153 24.4837 27.9264C23.5003 28.242 21.8568 28.3833 21.8568 28.3833C21.8568 28.3833 20.2496 28.2671 19.306 27.9264C18.4329 27.6112 16.9837 26.4797 16.9837 26.4797C16.9837 26.4797 15.9694 25.5139 15.3847 24.5762C14.9693 23.91 14.796 23.4933 14.5471 22.7487C14.4442 22.4408 14.4329 22.2538 14.3187 21.9492C14.1956 21.8375 14.1835 21.7751 13.938 21.7589C13.6515 21.74 13.3463 21.9067 13.0623 21.9492C12.5951 22.0193 12.2855 21.9289 11.8821 21.6828C11.458 21.4239 11.0826 20.6929 11.0826 20.6929C11.0826 20.6929 10.7672 20.1642 10.7019 19.6269C10.6517 19.2137 10.6029 18.6607 10.7019 18.2564C10.8064 17.8299 10.9164 17.5687 11.2349 17.2665C11.5148 17.0011 11.7249 16.8076 12.1106 16.8097C12.5519 16.812 13.1004 17.3426 13.1004 17.3426C13.1004 17.3426 13.2527 17.5711 13.3288 17.7234C13.5247 17.8584 13.8498 17.8983 14.0903 17.7234C14.2105 17.6359 14.2986 17.5661 14.3187 17.4188C14.4329 16.5812 14.5471 15.0203 14.5471 15.0203Z" fill="#FFE8CF"/>
<path d="M21.9613 29.5971L21.8653 29.6054L21.7692 29.5984L21.857 28.3833L21.9613 29.5971ZM16.9839 26.4797C16.9839 26.4797 18.4331 27.6112 19.3062 27.9264C20.2498 28.2671 21.857 28.3833 21.857 28.3833C21.771 29.5731 21.7691 29.5979 21.7689 29.5984C21.7689 29.5984 21.7688 29.5984 21.7687 29.5984C21.7685 29.5983 21.7683 29.5983 21.768 29.5983C21.7676 29.5983 21.767 29.5983 21.7664 29.5982C21.7651 29.5981 21.7634 29.598 21.7613 29.5978C21.7571 29.5975 21.7513 29.5971 21.7442 29.5965C21.7298 29.5954 21.7097 29.5938 21.6842 29.5917C21.6334 29.5874 21.5612 29.581 21.4722 29.5723C21.2949 29.5549 21.0483 29.528 20.7691 29.4895C20.2356 29.416 19.4913 29.2885 18.8925 29.0723C18.294 28.8562 17.5988 28.411 17.1301 28.0906C16.8781 27.9183 16.6564 27.7574 16.4977 27.6396C16.4181 27.5806 16.3538 27.5318 16.3086 27.4973C16.286 27.4801 16.2682 27.4663 16.2556 27.4566C16.2493 27.4518 16.2443 27.4479 16.2407 27.4451C16.239 27.4437 16.2375 27.4426 16.2364 27.4418C16.2359 27.4413 16.2354 27.4409 16.235 27.4407C16.2348 27.4405 16.2346 27.4404 16.2345 27.4403C16.2344 27.4402 16.2344 27.4402 16.2343 27.4401C16.2346 27.4396 16.2505 27.4191 16.9839 26.4797ZM26.0012 9.68317C26.4511 9.44129 27.0068 9.50551 27.3901 9.84846C28.246 10.6142 28.6256 11.2259 29.1548 12.026C29.7933 12.9913 30.1488 13.6428 30.5179 14.8033C30.6456 15.2047 30.7213 15.5576 30.7756 15.8802C30.8902 15.8118 31.0217 15.745 31.1685 15.6928C31.5224 15.567 31.8657 15.5563 32.1955 15.6038C32.4023 15.6336 32.7093 15.6839 33.0257 15.8449C33.3556 16.0127 33.5968 16.2475 33.7967 16.4882C34.2006 16.9744 34.4764 17.5733 34.5903 18.1861C34.6921 18.734 34.6382 19.1116 34.6047 19.4444C34.5447 20.0405 34.4715 20.5303 34.1413 21.1961C33.9168 21.6488 33.6462 22.2933 32.791 22.7549C32.091 23.1326 31.526 23.1299 31.0311 23.1295C30.9122 23.1294 30.8057 23.1226 30.7099 23.1128C30.7069 23.122 30.704 23.1312 30.7009 23.1404C30.4158 23.9803 30.1783 24.4802 29.6987 25.2316C29.0308 26.2779 28.5005 26.866 27.5161 27.6317C26.6387 28.3142 26.0015 28.7188 24.8561 29.0864C24.2594 29.2779 23.516 29.4033 22.9706 29.4797C22.6879 29.5193 22.4384 29.5484 22.2591 29.5676C22.1693 29.5772 22.0965 29.5845 22.0455 29.5894C22.0199 29.5918 21.9997 29.5937 21.9855 29.5949C21.9784 29.5956 21.9728 29.5961 21.9687 29.5964C21.9667 29.5966 21.9651 29.5968 21.9638 29.5969C21.9632 29.5969 21.9627 29.597 21.9623 29.597C21.9621 29.597 21.9619 29.597 21.9617 29.597L21.9615 29.5971L21.857 28.3833C21.8586 28.3831 23.3999 28.2505 24.3898 27.9555L24.4839 27.9264C25.3927 27.6348 25.8988 27.3351 26.6207 26.7838L26.7681 26.6701C27.6132 26.0128 28.0494 25.5381 28.6164 24.6622L28.6717 24.5762C29.0709 23.9508 29.2676 23.5505 29.5003 22.8854L29.5473 22.7488C29.6517 22.4413 29.6235 22.2158 29.7758 21.9493C29.9124 21.8415 30.0223 21.8215 30.1945 21.797C30.5372 21.8351 30.702 21.9109 31.0321 21.9112C31.4869 21.9116 31.7804 21.9061 32.1739 21.7031L32.2123 21.6828C32.685 21.4277 32.8112 21.136 33.0499 20.6549C33.2709 20.2092 33.3314 19.8979 33.3824 19.4202L33.3925 19.3224C33.426 18.9895 33.454 18.786 33.4037 18.4728L33.3925 18.4087C33.3158 17.996 33.1277 17.5894 32.8595 17.2665C32.5952 16.9483 32.4145 16.8718 32.089 16.8198L32.022 16.8097C31.6612 16.7578 31.4745 16.8555 31.1844 17.0762C30.9246 17.2738 30.9179 17.4569 30.6895 17.7234C30.483 17.8077 30.3153 17.8274 30.1198 17.7419L30.0803 17.7234C29.9346 17.6505 29.8149 17.5881 29.779 17.434L29.7758 17.4188C29.6282 16.6443 29.6274 16.0604 29.3815 15.2516L29.357 15.1726C29.0508 14.2103 28.7703 13.667 28.2467 12.8625L28.1387 12.698C27.6031 11.8882 27.3011 11.4036 26.5778 10.7564C25.7402 11.2513 23.7936 12.4873 21.857 13.2691L21.728 13.3202C18.9936 14.3877 14.5503 15.0199 14.5473 15.0203L14.5277 15.2773C14.4902 15.7556 14.4046 16.7906 14.3189 17.4188L14.3144 17.4456C14.2877 17.5749 14.2032 17.6414 14.0905 17.7234L14.0677 17.7391C13.8298 17.8957 13.5188 17.8542 13.329 17.7234C13.2719 17.6092 13.172 17.4521 13.1256 17.3807L13.1006 17.3427C13.6382 16.9843 13.8907 16.816 14.0093 16.737L14.0094 16.7367L13.5807 17.0226C13.4535 17.1074 13.2959 17.2125 13.1006 17.3427C13.1006 17.3427 12.5521 16.812 12.1108 16.8097C11.7251 16.8076 11.515 17.0011 11.2351 17.2665L11.2059 17.2947C10.9097 17.5851 10.8034 17.8433 10.7021 18.2564L10.6933 18.2947C10.6062 18.6952 10.6535 19.2266 10.7021 19.6269C10.7673 20.1636 11.0822 20.6918 11.0829 20.6929C11.0829 20.6929 11.4582 21.4239 11.8823 21.6828C12.2731 21.9212 12.5758 22.0135 13.0192 21.9554L13.0625 21.9493C13.3465 21.9067 13.6517 21.7401 13.9382 21.7589C14.1838 21.7751 14.1958 21.8376 14.3189 21.9493C14.4331 22.2538 14.4444 22.4408 14.5473 22.7488C14.7962 23.4933 14.9695 23.91 15.3849 24.5762C15.9691 25.5132 16.9823 26.4783 16.9839 26.4797C16.169 27.3355 16.1445 27.3612 16.1436 27.3618C16.1436 27.3618 16.1435 27.3618 16.1434 27.3617C16.1433 27.3615 16.1431 27.3614 16.1429 27.3612C16.1425 27.3609 16.1422 27.3605 16.1417 27.3601C16.1407 27.3591 16.1396 27.3579 16.1381 27.3566C16.1353 27.3538 16.1314 27.3501 16.1266 27.3456C16.1171 27.3364 16.1039 27.3236 16.0873 27.3074C16.0543 27.2751 16.0078 27.2292 15.9508 27.1716C15.8371 27.0568 15.68 26.8943 15.503 26.7C15.1578 26.321 14.701 25.7819 14.3511 25.2207C13.8717 24.4519 13.6617 23.9422 13.3919 23.135C13.391 23.1324 13.3902 23.1298 13.3894 23.1272C13.3432 23.1371 13.2942 23.1464 13.2432 23.1541C12.887 23.2075 12.5317 23.2073 12.1647 23.1194C11.8081 23.0339 11.5078 22.8814 11.2476 22.7227C10.7995 22.4491 10.4779 22.0128 10.3174 21.7777C10.2224 21.6386 10.1457 21.5117 10.0926 21.4194C10.0657 21.3728 10.0441 21.3337 10.0284 21.3047C10.0238 21.2963 10.0198 21.2886 10.0163 21.2819C10.0138 21.2776 10.011 21.273 10.0082 21.268C9.99433 21.2434 9.97622 21.2105 9.95514 21.1706C9.91325 21.0912 9.85808 20.9809 9.80041 20.8488C9.69107 20.5983 9.54564 20.209 9.49279 19.7739C9.44572 19.3864 9.35922 18.6181 9.51889 17.9665C9.65651 17.4048 9.85114 16.9001 10.3967 16.3826C10.6569 16.1358 11.1912 15.5865 12.1172 15.5914L12.175 15.5927C12.6151 15.6095 12.9978 15.788 13.2502 15.9373C13.2542 15.8912 13.2583 15.8455 13.2622 15.8004C13.2833 15.557 13.3008 15.3391 13.3131 15.1821C13.3193 15.1037 13.3241 15.0406 13.3273 14.9973C13.329 14.9757 13.3302 14.959 13.3311 14.9478C13.3315 14.9423 13.3318 14.938 13.332 14.9353C13.3321 14.9339 13.3322 14.9329 13.3322 14.9322C13.3323 14.9319 13.3323 14.9317 13.3323 14.9316V14.9314L13.3345 14.9047C13.3869 14.3544 13.8038 13.908 14.3493 13.8183L14.3758 13.8142H14.3759C14.3762 13.8141 14.3768 13.8141 14.3776 13.814C14.3794 13.8137 14.3822 13.8133 14.3861 13.8127C14.3939 13.8116 14.4059 13.8099 14.422 13.8075C14.4541 13.8027 14.5026 13.7955 14.5657 13.7858C14.6919 13.7666 14.8767 13.7376 15.1075 13.6994C15.5695 13.6228 16.2136 13.5094 16.9401 13.3626C18.4142 13.0648 20.1496 12.6445 21.4009 12.1393C23.229 11.4014 25.0712 10.2316 25.958 9.70756L26.0012 9.68317ZM16.2342 27.44L16.1871 27.4033L16.1438 27.3621L16.9839 26.4797L16.2342 27.44ZM13.792 16.6273C13.6747 16.7487 13.4691 16.9618 13.1077 17.3354L13.7924 16.6274C13.7923 16.6274 13.7921 16.6274 13.792 16.6273Z" fill="#E48D58"/>
<path d="M13.344 7.13971C13.344 7.13971 14.1312 6.11543 14.7526 5.57879C15.4612 4.96693 15.928 4.69284 16.7704 4.28438C17.5785 3.89252 18.0668 3.73139 18.9404 3.52295C19.9163 3.29013 20.488 3.21475 21.4912 3.21839C22.4649 3.22191 23.0202 3.29101 23.9658 3.52295C24.7147 3.70664 25.1451 3.81839 25.8313 4.17016C26.3194 4.42038 26.6059 4.56845 27.0115 4.93159C27.1995 5.09987 27.4684 5.38844 27.4684 5.38844C27.4684 5.38844 27.813 5.73895 28.0394 5.9595C28.7247 6.41636 29.3996 6.53667 30.0953 7.17778C30.483 7.53513 30.6941 7.76505 30.9709 8.2057C31.1868 8.54934 31.4658 9.1194 31.4658 9.1194C31.4658 9.1194 31.8027 9.95224 31.9227 10.528C32.0411 11.0964 32.0369 11.6614 32.0369 12.2412C32.0369 12.8211 32.0241 12.9183 31.9988 13.4976C31.9663 14.244 31.8085 15.4011 31.8085 15.4011C31.8085 15.4011 31.4346 15.3661 31.1993 15.4011C30.9528 15.4379 30.5902 15.5915 30.5902 15.5915C30.5902 15.5915 30.1957 14.1612 29.7907 13.3072C29.3875 12.4571 29.0907 12.0102 28.5344 11.2514C27.9365 10.4359 27.5826 9.99504 26.8211 9.30976C26.719 9.2328 26.6762 9.15932 26.5547 9.1194C26.4275 9.07765 26.3443 9.09919 26.212 9.1194C25.8694 9.34783 25.3364 9.80468 25.3364 9.80468C25.3364 9.80468 24.1497 10.4991 23.3567 10.9087C22.2327 11.4894 21.575 11.8062 20.3871 12.2412C19.1636 12.6893 18.4209 12.8245 17.1511 13.1169C15.9173 13.401 15.4379 13.3834 13.9531 13.6499C13.6486 13.7045 13.344 13.9925 13.344 13.9925C13.344 13.9925 13.1198 14.2209 13.0775 14.6016C13.0394 14.9443 13.0013 15.6296 13.0013 15.6296L11.6308 15.2869C11.6308 15.2869 11.3557 13.138 11.5546 11.7844C11.712 10.7135 11.867 10.0825 12.278 9.08121C12.6088 8.27533 13.344 7.13971 13.344 7.13971Z" fill="#FFB486"/>
<path d="M26.212 9.11942C26.3443 9.09921 26.4275 9.07767 26.5547 9.11942C26.6762 9.15934 26.719 9.23282 26.8212 9.30978C27.5826 9.99506 27.9365 10.4359 28.5344 11.2514C29.0907 12.0102 29.3875 12.4571 29.7907 13.3072C30.1957 14.1612 30.5902 15.5915 30.5902 15.5915C30.5902 15.5915 30.9528 15.4379 31.1993 15.4012C31.3758 15.3749 31.6302 15.388 31.7464 15.3962L31.8085 15.4012L33.0156 15.5658L32.8577 16.7232L31.6963 16.6142H31.6965C31.6963 16.6142 31.696 16.6142 31.6957 16.6141L31.6949 16.6141C31.6939 16.614 31.6926 16.6139 31.6908 16.6138C31.6847 16.6133 31.6743 16.6124 31.6605 16.6115C31.6324 16.6095 31.5929 16.607 31.5487 16.6054C31.5037 16.6038 31.4603 16.6034 31.4231 16.6043C31.3993 16.6048 31.385 16.6058 31.3791 16.6063C31.3732 16.6076 31.3585 16.6111 31.3341 16.618C31.2967 16.6287 31.2534 16.6428 31.2088 16.6585C31.1652 16.674 31.1265 16.6889 31.099 16.6997C31.0855 16.7051 31.0753 16.7092 31.0694 16.7116C31.0677 16.7123 31.0664 16.7128 31.0654 16.7132L29.7854 17.2556L29.4158 15.9154C29.4157 15.9151 29.4155 15.9143 29.4152 15.9133C29.4146 15.9113 29.4137 15.908 29.4124 15.9034C29.4099 15.8942 29.4059 15.8799 29.4005 15.8611C29.3899 15.8235 29.3738 15.7679 29.3533 15.6981C29.3122 15.5581 29.2533 15.3627 29.1825 15.1424C29.0363 14.6874 28.8563 14.18 28.69 13.8292C28.3311 13.0725 28.0812 12.6938 27.5519 11.9717C27.0898 11.3414 26.8062 10.9795 26.3555 10.541C26.2977 10.5883 26.2469 10.6305 26.2079 10.6632C26.1823 10.6847 26.1619 10.7019 26.1483 10.7134C26.1415 10.7192 26.1364 10.7235 26.1332 10.7263C26.1316 10.7277 26.1304 10.7287 26.1297 10.7293C26.1294 10.7295 26.1292 10.7297 26.1291 10.7298L26.0461 10.8009L25.9517 10.8562L25.3364 9.8047C25.3364 9.8047 25.8694 9.34785 26.212 9.11942ZM25.3364 9.8047C25.94 10.8363 25.9515 10.8558 25.9517 10.8562L25.9515 10.8563C25.9515 10.8563 25.9514 10.8564 25.9513 10.8564C25.9511 10.8565 25.9508 10.8567 25.9505 10.8569C25.9498 10.8573 25.9489 10.8578 25.9477 10.8585C25.9452 10.8599 25.9416 10.862 25.937 10.8647C25.9277 10.8702 25.9141 10.8781 25.8967 10.8882C25.8618 10.9085 25.8114 10.9378 25.7485 10.9742C25.6228 11.0469 25.4468 11.1481 25.2456 11.2624C24.847 11.4888 24.3348 11.7747 23.9159 11.9911C22.7669 12.5847 22.0595 12.9261 20.8061 13.3852C19.4935 13.8659 18.6602 14.0196 17.4245 14.3041C16.7606 14.457 16.2944 14.5293 15.8153 14.5965C15.3704 14.6588 14.931 14.7149 14.2789 14.8296C14.2658 14.9687 14.2522 15.1527 14.2407 15.3252C14.2338 15.4288 14.2281 15.5223 14.224 15.5899C14.222 15.6236 14.2204 15.6508 14.2193 15.6694C14.2188 15.6786 14.2184 15.6858 14.2181 15.6905C14.218 15.6928 14.2179 15.6946 14.2178 15.6957C14.2178 15.6962 14.2178 15.6966 14.2178 15.6969C14.2178 15.697 14.2178 15.6971 14.2178 15.6972L14.136 17.169L10.5281 16.267L10.4224 15.4416L11.6308 15.2869L13.0013 15.6296C13.0013 15.6296 13.0394 14.9443 13.0775 14.6017C13.1196 14.2231 13.3415 13.9951 13.344 13.9925C13.344 13.9925 13.6486 13.7046 13.9531 13.6499C15.3915 13.3917 15.8864 13.4001 17.0376 13.1426L17.1511 13.1169C18.3812 12.8336 19.1167 12.698 20.2738 12.2824L20.3871 12.2413C21.5008 11.8334 22.1485 11.5295 23.1512 11.0146L23.3567 10.9088C24.1476 10.5002 25.3302 9.80833 25.3364 9.8047ZM31.0649 16.7134H31.0651L31.0653 16.7133L31.0652 16.7133C31.0651 16.7133 31.065 16.7134 31.0649 16.7134ZM31.6957 16.6141L31.6963 16.6142C31.6962 16.6142 31.6961 16.6142 31.696 16.6142C31.6958 16.6142 31.6956 16.6142 31.6954 16.6141C31.6953 16.6141 31.6952 16.6142 31.6951 16.6141L31.6949 16.6141C31.6952 16.6141 31.6954 16.6141 31.6957 16.6141ZM32.0369 12.2413C32.0369 11.6795 32.0409 11.1317 31.9335 10.5813L31.9227 10.5281C31.8327 10.0962 31.6207 9.51978 31.5203 9.25855L31.4658 9.11942C32.5903 8.66464 32.5953 8.66266 32.5953 8.66272L32.5954 8.66287C32.5954 8.66297 32.5955 8.66311 32.5955 8.66324C32.5957 8.66351 32.5958 8.6639 32.5959 8.66428C32.5962 8.66502 32.5966 8.66597 32.597 8.66711C32.598 8.66941 32.5992 8.67253 32.6007 8.6764C32.6038 8.68414 32.6082 8.69494 32.6135 8.70852C32.6243 8.73568 32.6393 8.77412 32.6576 8.82162C32.6939 8.91633 32.7437 9.04875 32.7976 9.20114C32.9006 9.49202 33.0379 9.90772 33.1154 10.2795C33.2642 10.9937 33.2552 11.6904 33.2552 12.2413C33.2552 12.8551 33.2405 12.9886 33.216 13.5506C33.1978 13.9683 33.146 14.4792 33.1019 14.867C33.0794 15.0648 33.058 15.2384 33.0421 15.3626C33.0342 15.4248 33.0277 15.4749 33.0231 15.5097C33.0208 15.5271 33.0189 15.5408 33.0177 15.5502C33.017 15.555 33.0165 15.5587 33.0162 15.5613C33.016 15.5626 33.0159 15.5636 33.0158 15.5644C33.0158 15.5647 33.0157 15.565 33.0157 15.5653C33.0156 15.5654 33.0156 15.5655 33.0156 15.5656V15.5658L31.8085 15.4012C31.8085 15.4012 31.9566 14.3151 31.9954 13.5687L31.9988 13.4976C32.0209 12.9907 32.0335 12.8529 32.0363 12.4379L32.0369 12.2413ZM13.344 7.13973L13.3118 7.19007C13.1666 7.41843 12.5674 8.37605 12.278 9.0812C11.867 10.0825 11.712 10.7135 11.5546 11.7844L11.5457 11.8484C11.3643 13.2046 11.6308 15.2869 11.6308 15.2869L10.4223 15.4414C10.4223 15.4413 10.4223 15.4412 10.4223 15.4411C10.4223 15.4409 10.4223 15.4407 10.4223 15.4404C10.4222 15.4399 10.4221 15.4392 10.422 15.4384C10.4218 15.4368 10.4215 15.4347 10.4212 15.4321C10.4206 15.4269 10.4197 15.4196 10.4185 15.4104C10.4163 15.392 10.4131 15.3658 10.4092 15.3325C10.4015 15.266 10.3909 15.171 10.3789 15.0535C10.355 14.8188 10.3254 14.4915 10.3022 14.1188C10.2574 13.3975 10.2304 12.4162 10.3493 11.6073C10.5186 10.4555 10.6963 9.72623 11.151 8.61862C11.3503 8.13297 11.653 7.5869 11.8837 7.19282C12.003 6.98895 12.1112 6.81214 12.1897 6.686C12.229 6.6228 12.2611 6.57195 12.2838 6.53631C12.2951 6.51849 12.3041 6.50442 12.3105 6.49453C12.3137 6.48959 12.3162 6.48568 12.318 6.48285C12.3189 6.48145 12.3196 6.4803 12.3202 6.47943C12.3204 6.479 12.3207 6.47861 12.3209 6.47832C12.321 6.47818 12.3211 6.47805 12.3211 6.47794L12.3213 6.47772C12.3215 6.47779 12.3355 6.48684 13.3021 7.11259L12.3213 6.47765L12.348 6.4363L12.378 6.39734L13.344 7.13973ZM21.4957 2.00013C22.5667 2.00401 23.2179 2.08508 24.256 2.33972C25.0272 2.52887 25.5703 2.66736 26.3871 3.08605C26.8873 3.34248 27.294 3.54929 27.8241 4.02385C27.9508 4.13725 28.0891 4.27637 28.1834 4.37325C28.2333 4.42451 28.2765 4.46985 28.3075 4.50249C28.323 4.51886 28.3356 4.53218 28.3445 4.54167C28.3456 4.54281 28.3466 4.54392 28.3476 4.54494C28.3488 4.54618 28.3501 4.54752 28.3515 4.54896C28.3611 4.55868 28.3751 4.57288 28.3927 4.59067C28.4279 4.62629 28.4771 4.67606 28.5332 4.73255C28.6178 4.81765 28.7153 4.91533 28.8032 5.00217C29.023 5.13738 29.2359 5.22731 29.5997 5.40563C29.9858 5.5949 30.448 5.84612 30.9209 6.28186C31.3635 6.68974 31.653 7.00116 32.0025 7.55769C32.1377 7.77283 32.2799 8.03714 32.3795 8.22795C32.4314 8.32743 32.4759 8.41519 32.5076 8.47824C32.5234 8.50984 32.5362 8.53549 32.5451 8.55356C32.5496 8.56259 32.5532 8.56973 32.5557 8.57483C32.5569 8.57738 32.5579 8.57944 32.5587 8.58093C32.559 8.58167 32.5593 8.58231 32.5596 8.58278C32.5597 8.58301 32.5598 8.58322 32.5599 8.58338C32.5599 8.58345 32.5599 8.58354 32.5599 8.5836L32.56 8.58368C32.5596 8.58393 32.5385 8.59434 31.5076 9.09897L32.5601 8.58375L32.579 8.62257L32.5952 8.66257L31.4658 9.11942C31.4658 9.11942 31.2205 8.61835 31.012 8.27256L30.9709 8.20572C30.7114 7.79261 30.5097 7.5647 30.166 7.24338L30.0953 7.1778C29.3996 6.53669 28.7247 6.41638 28.0394 5.95952C27.8134 5.73935 27.4695 5.38966 27.4684 5.38846C27.4684 5.38846 27.2321 5.13484 27.0476 4.96447L27.0115 4.9316C26.6566 4.61386 26.3929 4.46079 26.0055 4.25986L25.8313 4.17018C25.2309 3.86237 24.8263 3.73834 24.2328 3.58908L23.9658 3.52297C23.0793 3.30552 22.5358 3.23116 21.6691 3.21982L21.4912 3.2184C20.488 3.21477 19.9163 3.29015 18.9404 3.52297L18.781 3.56156C18.0046 3.75245 17.528 3.91703 16.7704 4.28439L16.6167 4.3595C15.8687 4.72841 15.4169 5.0052 14.7526 5.57881L14.694 5.63049C14.0828 6.17845 13.344 7.13973 13.344 7.13973C12.378 6.39737 12.3781 6.39726 12.3782 6.39719L12.3782 6.39704C12.3783 6.39693 12.3784 6.39681 12.3785 6.39667C12.3787 6.39639 12.379 6.39604 12.3793 6.39563C12.38 6.39481 12.3809 6.39375 12.3819 6.39243C12.3839 6.38981 12.3866 6.38617 12.3901 6.38165C12.3971 6.37261 12.4071 6.35986 12.4196 6.3438C12.4448 6.3117 12.4806 6.2662 12.5253 6.21033C12.6145 6.09885 12.7401 5.94454 12.8868 5.77184C13.1686 5.44006 13.5708 4.98966 13.9564 4.6567C14.7669 3.95687 15.3307 3.62851 16.2389 3.18814C17.1389 2.75173 17.7128 2.56338 18.6577 2.33794C19.7182 2.08492 20.3865 1.99611 21.4957 2.00013Z" fill="#E48D58"/>
</svg>
